<svg width="35" height="35" viewBox="0 0 35 35" fill="none" xmlns="http://www.w3.org/2000/svg">
<path d="M2.91699 11.666C2.91699 7.54185 2.91699 5.47831 4.19887 4.19789C5.47928 2.91602 7.54283 2.91602 11.667 2.91602H13.1253C17.2495 2.91602 19.313 2.91602 20.5935 4.19789C21.8753 5.47831 21.8753 7.54185 21.8753 11.666V23.3327C21.8753 27.4568 21.8753 29.5204 20.5935 30.8008C19.313 32.0827 17.2495 32.0827 13.1253 32.0827H11.667C7.54283 32.0827 5.47928 32.0827 4.19887 30.8008C2.91699 29.5204 2.91699 27.4568 2.91699 23.3327V11.666Z" stroke="#F8F8F8" stroke-width="1.5"/>
<path d="M25.5208 14.5929C28.2333 14.6323 29.7704 14.8335 30.8015 15.8646C32.0833 17.1464 32.0833 19.2085 32.0833 23.3327C32.0833 27.4583 32.0833 29.5204 30.8015 30.8023C29.7704 31.8333 28.2333 32.0346 25.5208 32.0739M16.0417 7.29102H8.75M27.7083 26.2493V20.416" stroke="#F8F8F8" stroke-width="1.5" stroke-linecap="round"/>
<path d="M14.584 25.5195C14.584 26.0997 14.3535 26.6561 13.9433 27.0663C13.533 27.4766 12.9766 27.707 12.3965 27.707C11.8163 27.707 11.2599 27.4766 10.8497 27.0663C10.4395 26.6561 10.209 26.0997 10.209 25.5195C10.209 24.9394 10.4395 24.383 10.8497 23.9727C11.2599 23.5625 11.8163 23.332 12.3965 23.332C12.9766 23.332 13.533 23.5625 13.9433 23.9727C14.3535 24.383 14.584 24.9394 14.584 25.5195Z" stroke="#F8F8F8" stroke-width="1.5"/>
<path d="M29.8962 10.1873L32.0837 11.666C32.0837 7.26914 28.9307 3.62039 24.792 2.91602" stroke="#F8F8F8" stroke-width="1.5" stroke-linecap="round" stroke-linejoin="round"/>
</svg>
