<svg width="35" height="35" viewBox="0 0 35 35" fill="none" xmlns="http://www.w3.org/2000/svg">
<path d="M23.333 2.91602C27.4572 2.91602 29.5207 2.91602 30.8011 4.19789C32.083 5.47831 32.083 7.54185 32.083 11.666L32.083 13.1243C32.083 17.2485 32.083 19.3121 30.8011 20.5925C29.5207 21.8743 27.4572 21.8743 23.333 21.8743L11.6663 21.8743C7.54217 21.8743 5.47863 21.8743 4.19822 20.5925C2.91634 19.3121 2.91634 17.2485 2.91634 13.1243L2.91634 11.666C2.91634 7.54185 2.91634 5.47831 4.19822 4.19789C5.47863 2.91601 7.54218 2.91601 11.6663 2.91601L23.333 2.91602Z" stroke="#F8F8F8" stroke-width="1.5"/>
<path d="M20.4061 25.5208C20.3668 28.2333 20.1655 29.7704 19.1345 30.8015C17.8526 32.0833 15.7905 32.0833 11.6663 32.0833C7.54072 32.0833 5.47863 32.0833 4.19676 30.8015C3.16572 29.7704 2.96447 28.2333 2.92509 25.5208M27.708 16.0417L27.708 8.75M8.74967 27.7083L14.583 27.7083" stroke="#F8F8F8" stroke-width="1.5" stroke-linecap="round"/>
<path d="M9.47852 14.582C8.89835 14.582 8.34196 14.3516 7.93172 13.9413C7.52148 13.5311 7.29102 12.9747 7.29102 12.3945C7.29102 11.8144 7.52148 11.258 7.93172 10.8477C8.34196 10.4375 8.89835 10.207 9.47852 10.207C10.0587 10.207 10.6151 10.4375 11.0253 10.8477C11.4355 11.258 11.666 11.8144 11.666 12.3945C11.666 12.9747 11.4355 13.5311 11.0253 13.9413C10.6151 14.3516 10.0587 14.582 9.47852 14.582Z" stroke="#F8F8F8" stroke-width="1.5"/>
<path d="M24.8118 29.8952L23.333 32.0827C27.7299 32.0827 31.3786 28.9298 32.083 24.791" stroke="#F8F8F8" stroke-width="1.5" stroke-linecap="round" stroke-linejoin="round"/>
</svg>