<svg width="32" height="32" viewBox="0 0 32 32" fill="none" xmlns="http://www.w3.org/2000/svg">
    <path d="M1 1.00353V10.3774H2.09125M2.09125 10.3774C3.33597 7.29928 5.5669 4.72104 8.43443 3.04678C11.302 1.37251 14.644 0.696837 17.9368 1.12565C21.2296 1.55446 24.2871 3.06352 26.6301 5.41634C28.973 7.76915 30.4691 10.8327 30.8837 14.127M2.09125 10.3774H10.375M31 31V21.6261H29.9106M29.9106 21.6261C28.6641 24.7024 26.4326 27.2787 23.5653 28.9514C20.6981 30.6242 17.357 31.2991 14.0652 30.8704C10.7734 30.4418 7.71662 28.9338 5.3735 26.5825C3.03038 24.2313 1.53317 21.1695 1.11625 17.8765M29.9106 21.6261H21.625" stroke="#F8F8F8" stroke-width="2" stroke-linecap="round" stroke-linejoin="round"/>
</svg>