<svg width="35" height="35" viewBox="0 0 35 35" fill="none" xmlns="http://www.w3.org/2000/svg">
    <rect width="35" height="35" fill="#1F1F1F"/>
    <path d="M27.9128 18.8708C27.9711 18.4333 28.0003 17.9813 28.0003 17.5C28.0003 17.0333 27.9711 16.5667 27.8982 16.1292L30.8586 13.825C30.9862 13.7199 31.0733 13.5737 31.1052 13.4115C31.1371 13.2493 31.1118 13.0811 31.0336 12.9354L28.2336 8.09375C28.1511 7.94729 28.0195 7.83472 27.862 7.776C27.7046 7.71727 27.5314 7.71618 27.3732 7.77292L23.8878 9.17292C23.1586 8.61875 22.3857 8.15209 21.5253 7.80209L21.0003 4.09792C20.9744 3.93099 20.8896 3.77885 20.7611 3.66914C20.6327 3.55942 20.4692 3.49941 20.3003 3.5H14.7003C14.3503 3.5 14.0732 3.74792 14.0148 4.09792L13.4898 7.80209C12.6294 8.15209 11.8419 8.63334 11.1273 9.17292L7.64192 7.77292C7.32109 7.65625 6.9565 7.77292 6.7815 8.09375L3.99609 12.9354C3.82109 13.2417 3.87942 13.6208 4.17109 13.825L7.1315 16.1292C7.05859 16.5667 7.00025 17.0479 7.00025 17.5C7.00025 17.9521 7.02942 18.4333 7.10234 18.8708L4.14192 21.175C4.01435 21.2802 3.92719 21.4263 3.89528 21.5885C3.86337 21.7507 3.88868 21.919 3.96692 22.0646L6.76692 26.9063C6.94192 27.2271 7.3065 27.3292 7.62734 27.2271L11.1128 25.8271C11.8419 26.3813 12.6148 26.8479 13.4753 27.1979L14.0003 30.9021C14.0732 31.2521 14.3503 31.5 14.7003 31.5H20.3003C20.6503 31.5 20.9419 31.2521 20.9857 30.9021L21.5107 27.1979C22.3711 26.8479 23.1586 26.3813 23.8732 25.8271L27.3586 27.2271C27.6794 27.3438 28.044 27.2271 28.219 26.9063L31.019 22.0646C31.194 21.7438 31.1211 21.3792 30.844 21.175L27.9128 18.8708ZM17.5003 22.75C14.6128 22.75 12.2503 20.3875 12.2503 17.5C12.2503 14.6125 14.6128 12.25 17.5003 12.25C20.3878 12.25 22.7503 14.6125 22.7503 17.5C22.7503 20.3875 20.3878 22.75 17.5003 22.75Z" fill="#F1F1F1"/>
</svg>

