<svg width="29" height="29" viewBox="0 0 29 29" fill="none" xmlns="http://www.w3.org/2000/svg">
    <g clip-path="url(#clip0_2450_22)">
        <path d="M27.55 10.875L25.5563 10.5125C25.375 10.15 25.375 9.7875 25.1937 9.425L26.2812 7.79375L27.1875 6.525L22.475 1.8125L21.2062 2.71875L19.575 3.80625C19.2125 3.625 18.85 3.625 18.4875 3.44375L18.125 1.45L17.7625 0H11.2375L10.875 1.45L10.5125 3.44375C10.15 3.625 9.7875 3.625 9.425 3.80625L7.79375 2.71875L6.525 1.99375L1.99375 6.525L2.9 7.79375L3.9875 9.425C3.625 9.7875 3.625 10.15 3.44375 10.5125L1.45 10.875L0 11.2375V17.7625L1.45 18.125L3.44375 18.4875C3.625 18.85 3.625 19.2125 3.80625 19.575L2.71875 21.2062L1.8125 22.475L6.525 27.1875L7.79375 26.2812L9.425 25.1937C9.7875 25.375 10.15 25.375 10.5125 25.5563L10.875 27.55L11.2375 29H17.7625L18.125 27.55L18.4875 25.5563C18.85 25.375 19.2125 25.375 19.575 25.1937L21.2062 26.2812L22.475 27.1875L27.1875 22.475L26.2812 21.2062L25.1937 19.575C25.375 19.2125 25.5563 18.85 25.5563 18.4875L27.55 18.125L29 17.7625V11.2375L27.55 10.875ZM27.1875 16.3125L24.1063 16.8563C23.925 17.7625 23.5625 18.6688 23.0187 19.575L24.65 22.1125L22.1125 24.65L19.575 23.0187C18.6688 23.5625 17.7625 23.925 16.8563 24.1063L16.3125 27.1875H12.6875L12.1437 24.1063C11.2375 23.925 10.3312 23.5625 9.425 23.0187L6.8875 24.65L4.35 22.1125L5.98125 19.575C5.4375 18.6688 5.075 17.7625 4.89375 16.8563L1.8125 16.3125V12.6875L4.89375 12.1437C5.075 11.2375 5.4375 10.3312 5.98125 9.425L4.16875 6.8875L6.70625 4.35L9.24375 5.98125C10.15 5.4375 11.0562 5.075 11.9625 4.89375L12.6875 1.8125H16.3125L16.8563 4.89375C17.7625 5.075 18.6688 5.4375 19.575 5.98125L22.1125 4.35L24.65 6.8875L23.0187 9.425C23.5625 10.3312 23.925 11.2375 24.1063 12.1437L27.1875 12.6875V16.3125Z" fill="#F8F8F8"/>
        <path d="M14.5 8.15625C11.0563 8.15625 8.15625 11.0563 8.15625 14.5C8.15625 17.9438 11.0563 20.8438 14.5 20.8438C17.9438 20.8438 20.8438 17.9438 20.8438 14.5C20.8438 11.0563 17.9438 8.15625 14.5 8.15625ZM14.5 19.0312C11.9625 19.0312 9.96875 17.0375 9.96875 14.5C9.96875 11.9625 11.9625 9.96875 14.5 9.96875C17.0375 9.96875 19.0312 11.9625 19.0312 14.5C19.0312 17.0375 17.0375 19.0312 14.5 19.0312Z" fill="#F8F8F8"/>
    </g>
    <defs>
        <clipPath id="clip0_2450_22">
            <rect width="29" height="29" fill="white"/>
        </clipPath>
    </defs>
</svg>