<svg width="39" height="39" viewBox="0 0 39 39" fill="none" xmlns="http://www.w3.org/2000/svg">
    <path d="M25.2948 17.9091C26.9925 16.9011 28.3993 15.4694 29.3775 13.7543C30.3557 12.0392 30.8717 10.0994 30.875 8.125V6.5H32.5V3.25H6.5V6.5H8.125V8.125C8.1283 10.0994 8.6443 12.0392 9.62249 13.7543C10.6007 15.4694 12.0075 16.9011 13.7052 17.9091C14.2805 18.2471 14.625 18.7947 14.625 19.3716V19.6284C14.625 20.2036 14.2805 20.7496 13.7052 21.0909C12.0075 22.0989 10.6007 23.5306 9.62249 25.2457C8.6443 26.9608 8.1283 28.9006 8.125 30.875V32.5H6.5V35.75H32.5V32.5H30.875V30.875C30.8719 28.9009 30.3561 26.9615 29.3782 25.2467C28.4003 23.5318 26.9938 22.1004 25.2964 21.0925C24.7195 20.7512 24.375 20.2036 24.375 19.6284V19.3716C24.375 18.7947 24.7195 18.2471 25.2948 17.9091ZM23.6454 23.8907C24.8566 24.6108 25.8601 25.6329 26.5577 26.8572C27.2553 28.0815 27.6231 29.4659 27.625 30.875V32.5H11.375V30.875C11.3771 29.4656 11.7451 28.0808 12.443 26.8563C13.1409 25.6317 14.1447 24.6093 15.3562 23.8891C16.9341 22.958 17.875 21.3639 17.875 19.6284V19.3716C17.875 17.6345 16.9325 16.0388 15.3546 15.1093C14.1434 14.3892 13.1399 13.3671 12.4423 12.1428C11.7447 10.9185 11.3769 9.53408 11.375 8.125V6.5H27.625V8.125C27.625 10.985 26.1007 13.6598 23.6454 15.1093C22.0675 16.0388 21.125 17.6345 21.125 19.3716V19.6284C21.125 21.3639 22.0659 22.958 23.6454 23.8907Z" fill="#F8F8F8"/>
</svg>