<svg width="29" height="24" viewBox="0 0 29 24" fill="none" xmlns="http://www.w3.org/2000/svg">
    <path d="M27.1875 8.16667C27.5356 8.16667 27.8694 8.30129 28.1156 8.54092C28.3617 8.78055 28.5 9.10556 28.5 9.44445L28.5 14.5556C28.5 14.8944 28.3617 15.2194 28.1156 15.4591C27.8694 15.6987 27.5356 15.8333 27.1875 15.8333C26.8394 15.8333 26.5055 15.6987 26.2594 15.4591C26.0132 15.2194 25.875 14.8944 25.875 14.5556L25.875 13.2778L24.1249 13.2778L24.0532 13.2761C23.8078 15.4353 22.9369 17.4821 21.5419 19.1777L21.5524 19.1896L22.8649 20.4674C23.0377 20.6236 23.164 20.8222 23.2305 21.0424C23.297 21.2626 23.3013 21.4962 23.2429 21.7186C23.1845 21.941 23.0656 22.1439 22.8987 22.306C22.7317 22.4681 22.523 22.5833 22.2944 22.6396C22.0662 22.6966 21.8265 22.6926 21.6005 22.6281C21.3745 22.5637 21.1704 22.4411 21.0099 22.2733L19.6974 20.9955L19.6851 20.9853C17.9472 22.3368 15.8525 23.1832 13.6423 23.4269C11.4321 23.6707 9.19606 23.3019 7.19159 22.3631C5.18713 21.4243 3.49566 19.9536 2.31185 18.1203C1.12804 16.287 0.499999 14.1655 0.499999 12C0.5 9.83451 1.12804 7.71303 2.31185 5.87969C3.49566 4.04635 5.18713 2.57566 7.1916 1.63687C9.19606 0.698081 11.4321 0.329342 13.6423 0.573089C15.8525 0.816835 17.9472 1.66316 19.6851 3.01467L19.6974 3.00445L21.0099 1.72667C21.2589 1.50109 21.5879 1.37824 21.928 1.38396C22.2681 1.38968 22.5926 1.52352 22.8334 1.75734C23.0736 1.99177 23.2111 2.30772 23.2169 2.63878C23.2228 2.96984 23.0966 3.29023 22.8649 3.5326L21.5524 4.81037L21.5419 4.8223C22.9369 6.51724 23.8079 8.5635 24.0532 10.7222L25.875 10.7222L25.875 9.44445C25.875 9.10556 26.0132 8.78055 26.2594 8.54092C26.5055 8.30129 26.8394 8.16667 27.1875 8.16667ZM3.12463 12C3.12487 14.3724 4.09316 16.6476 5.8165 18.325C7.53985 20.0024 9.87707 20.9447 12.314 20.9444C14.751 20.9442 17.088 20.0015 18.811 18.3238C20.534 16.6461 21.5019 14.3707 21.5016 11.9983C21.5014 9.62586 20.5331 7.35068 18.8098 5.67327C17.0864 3.99586 14.7492 3.05363 12.3123 3.05386C9.87532 3.05408 7.53828 3.99675 5.81527 5.67447C4.09225 7.3522 3.1244 9.62756 3.12463 12ZM14.8498 12.6627L17.1773 14.9287C17.3028 15.0465 17.4028 15.1874 17.4717 15.3433C17.5405 15.4992 17.5768 15.6668 17.5784 15.8365C17.58 16.0061 17.5469 16.1744 17.481 16.3315C17.415 16.4885 17.3177 16.6312 17.1945 16.7513C17.0713 16.8713 16.9248 16.9662 16.7635 17.0306C16.6023 17.0949 16.4294 17.1273 16.2552 17.1259C16.0809 17.1245 15.9086 17.0893 15.7485 17.0224C15.5883 16.9556 15.4434 16.8583 15.3223 16.7363L12.993 14.4704C12.6039 14.571 12.1963 14.5834 11.8015 14.5065C11.4067 14.4296 11.0353 14.2655 10.7159 14.0268C10.3966 13.7882 10.1377 13.4813 9.95938 13.1299C9.78103 12.7785 9.68792 12.392 9.68723 12C9.69043 11.6383 9.77252 11.2814 9.92806 10.9529C10.0836 10.6244 10.3091 10.3318 10.5895 10.0945C10.8699 9.85721 11.1989 9.68062 11.5547 9.57642C11.9105 9.47221 12.285 9.44279 12.6534 9.49007C13.0217 9.53736 13.3756 9.66029 13.6915 9.85072C14.0074 10.0411 14.2781 10.2947 14.4858 10.5947C14.6934 10.8946 14.8333 11.2341 14.896 11.5906C14.9588 11.9472 14.943 12.3126 14.8498 12.6627Z" fill="#F1F1F1"/>
</svg>