<svg width="24" height="24" viewBox="0 0 24 24" fill="none" xmlns="http://www.w3.org/2000/svg">
    <g clip-path="url(#clip0_2450_68)">
        <path d="M4.8255 10.443C3.48589 10.2506 2.26055 9.58177 1.37421 8.55905C0.487875 7.53633 -2.59091e-05 6.22834 1.03192e-09 4.875L1.03192e-09 4.125C1.03192e-09 2.676 1.176 1.5 2.625 1.5H4.659C5.001 0.6225 5.853 0 6.852 0H17.148C18.1185 0 18.9885 0.5955 19.341 1.5H21.375C22.824 1.5 24 2.676 24 4.125V4.875C24 6.22834 23.5121 7.53633 22.6258 8.55905C21.7395 9.58177 20.5141 10.2506 19.1745 10.443C18.8578 11.475 18.3227 12.4267 17.6054 13.2334C16.8882 14.0402 16.0058 14.6831 15.018 15.1185L15.234 17.2875C15.2415 17.3625 15.279 17.4675 15.405 17.5935C15.534 17.724 15.7305 17.8485 15.9645 17.934C16.389 18.0885 16.8915 18.345 17.2995 18.786C17.727 19.251 18 19.8705 18 20.625V21.75H19.875C20.1734 21.75 20.4595 21.8685 20.6705 22.0795C20.8815 22.2905 21 22.5766 21 22.875C21 23.1734 20.8815 23.4595 20.6705 23.6705C20.4595 23.8815 20.1734 24 19.875 24H4.125C3.82663 24 3.54048 23.8815 3.3295 23.6705C3.11853 23.4595 3 23.1734 3 22.875C3 22.5766 3.11853 22.2905 3.3295 22.0795C3.54048 21.8685 3.82663 21.75 4.125 21.75H6V20.625C6 19.8705 6.273 19.251 6.702 18.786C7.107 18.345 7.611 18.0885 8.0355 17.934C8.244 17.862 8.4345 17.745 8.595 17.5935C8.721 17.466 8.7585 17.364 8.766 17.2875L8.982 15.1185C7.99457 14.6828 7.11243 14.0398 6.3955 13.2331C5.67857 12.4263 5.14213 11.4748 4.8255 10.443ZM6.75 2.352V8.25C6.75 9.64239 7.30312 10.9777 8.28769 11.9623C9.27226 12.9469 10.6076 13.5 12 13.5C13.3924 13.5 14.7277 12.9469 15.7123 11.9623C16.6969 10.9777 17.25 9.64239 17.25 8.25V2.352C17.25 2.32495 17.2393 2.299 17.2201 2.27988C17.201 2.26075 17.1751 2.25 17.148 2.25H6.852C6.82495 2.25 6.799 2.26075 6.77987 2.27988C6.76075 2.299 6.75 2.32495 6.75 2.352ZM11.1855 15.705L11.0055 17.511C10.866 18.8985 9.7185 19.716 8.805 20.0475C8.63674 20.0998 8.48277 20.1902 8.355 20.3115C8.2995 20.3715 8.25 20.451 8.25 20.6265V21.7515H15.75V20.6265C15.75 20.451 15.7005 20.3715 15.645 20.3115C15.5172 20.1902 15.3633 20.0998 15.195 20.0475C14.2815 19.716 13.134 18.8985 12.996 17.5125L12.816 15.7065C12.2741 15.765 11.7274 15.7635 11.1855 15.705ZM19.5 3.75V8.058C20.1582 7.8253 20.728 7.39422 21.131 6.82416C21.5339 6.2541 21.7502 5.57311 21.75 4.875V4.125C21.75 4.02554 21.7105 3.93016 21.6402 3.85984C21.5698 3.78951 21.4745 3.75 21.375 3.75H19.5ZM4.5 3.75H2.625C2.52554 3.75 2.43016 3.78951 2.35984 3.85984C2.28951 3.93016 2.25 4.02554 2.25 4.125V4.875C2.25 6.345 3.189 7.5945 4.5 8.058V3.75Z" fill="#F1F1F1"/>
    </g>
    <defs>
        <clipPath id="clip0_2450_68">
            <rect width="24" height="24" fill="white"/>
        </clipPath>
    </defs>
</svg>