<svg width="30" height="36" viewBox="0 0 30 36" fill="none" xmlns="http://www.w3.org/2000/svg">
    <path d="M10 1.68752C10 1.23997 10.1756 0.810737 10.4882 0.494264C10.8007 0.177792 11.2246 0 11.6667 0L18.3333 0C18.7754 0 19.1993 0.177792 19.5118 0.494264C19.8244 0.810737 20 1.23997 20 1.68752C20 2.13508 19.8244 2.56431 19.5118 2.88078C19.1993 3.19726 18.7754 3.37505 18.3333 3.37505H16.6667V5.62508L16.6644 5.71733C19.4808 6.03281 22.1506 7.15262 24.3622 8.94613L24.3778 8.93263L26.0444 7.2451C26.2482 7.02297 26.5073 6.86058 26.7945 6.77505C27.0817 6.68952 27.3864 6.68401 27.6764 6.7591C27.9665 6.83419 28.2312 6.9871 28.4426 7.20172C28.654 7.41635 28.8044 7.68474 28.8778 7.97861C28.952 8.27197 28.9468 8.58016 28.8628 8.87078C28.7787 9.1614 28.6188 9.42372 28.4 9.63014L26.7333 11.3177L26.72 11.3334C28.4828 13.5679 29.5867 16.261 29.9047 19.1028C30.2226 21.9445 29.7416 24.8193 28.5171 27.3965C27.2926 29.9737 25.3743 32.1484 22.983 33.6705C20.5917 35.1925 17.8245 36 15 36C12.1755 36 9.4083 35.1925 7.01699 33.6705C4.62568 32.1484 2.70739 29.9737 1.48288 27.3965C0.258368 24.8193 -0.222596 21.9445 0.0953338 19.1028C0.413264 16.261 1.51717 13.5679 3.28001 11.3334L3.26667 11.3177L1.60001 9.63014C1.30577 9.31005 1.14554 8.88692 1.153 8.4497C1.16046 8.01248 1.33502 7.59522 1.64001 7.2856C1.94579 6.9768 2.3579 6.80005 2.78972 6.7925C3.22153 6.78495 3.63943 6.94718 3.95556 7.2451L5.62223 8.93263L5.63778 8.94613C7.84857 7.15258 10.5176 6.03274 13.3333 5.71733V3.37505H11.6667C11.2246 3.37505 10.8007 3.19726 10.4882 2.88078C10.1756 2.56431 10 2.13508 10 1.68752ZM15 32.6255C18.0945 32.6252 21.0621 31.3802 23.25 29.1645C25.438 26.9488 26.667 23.9438 26.6667 20.8105C26.6664 17.6773 25.4368 14.6726 23.2485 12.4573C21.0601 10.242 18.0923 8.99758 14.9978 8.99788C11.9033 8.99818 8.93567 10.2431 6.74774 12.4589C4.55982 14.6746 3.33082 17.6796 3.33112 20.8128C3.33141 23.946 4.56097 26.9508 6.74931 29.1661C8.93765 31.3814 11.9055 32.6258 15 32.6255ZM15.8644 17.5503L18.82 14.5577C18.9737 14.3965 19.1575 14.2678 19.3608 14.1793C19.5641 14.0907 19.7828 14.0441 20.0041 14.042C20.2254 14.04 20.4449 14.0826 20.6497 14.1673C20.8546 14.2521 21.0407 14.3773 21.1973 14.5357C21.3539 14.694 21.4777 14.8824 21.5616 15.0897C21.6455 15.2971 21.6878 15.5193 21.686 15.7434C21.6841 15.9674 21.6383 16.1889 21.551 16.3948C21.4638 16.6007 21.3369 16.787 21.1778 16.9427L18.2222 19.9375C18.3535 20.4378 18.3696 20.9619 18.2693 21.4695C18.169 21.9771 17.955 22.4546 17.6437 22.8652C17.3324 23.2758 16.9322 23.6086 16.4738 23.8379C16.0155 24.0672 15.5112 24.187 15 24.1878C14.5282 24.1837 14.0627 24.0782 13.6342 23.8782C13.2057 23.6782 12.8241 23.3884 12.5146 23.0278C12.2051 22.6673 11.9747 22.2442 11.8388 21.7868C11.7029 21.3293 11.6645 20.8479 11.7262 20.3742C11.7879 19.9006 11.9482 19.4457 12.1966 19.0395C12.445 18.6334 12.7757 18.2853 13.167 18.0183C13.5582 17.7513 14.001 17.5715 14.466 17.4908C14.9311 17.4101 15.4077 17.4304 15.8644 17.5503Z" fill="#F8F8F8"/>
</svg>